<?xml version="1.0" ?><!DOCTYPE svg  PUBLIC '-//W3C//DTD SVG 1.1//EN'  'http://www.w3.org/Graphics/SVG/1.1/DTD/svg11.dtd'><svg enable-background="new 0 0 66 66" id="Layer_1" version="1.1" viewBox="0 0 66 66" xml:space="preserve" xmlns="http://www.w3.org/2000/svg" xmlns:xlink="http://www.w3.org/1999/xlink"><g id="XMLID_3106_"><g id="XMLID_3162_"><path d="M64,56.223H2c-0.552,0-1,0.448-1,1V64c0,0.552,0.448,1,1,1h62c0.552,0,1-0.448,1-1    v-6.777C65,56.671,64.552,56.223,64,56.223z" fill="#E6E6E6" id="XMLID_3185_"/><g id="XMLID_3163_"><rect fill="#515151" height="3.424" id="XMLID_3184_" width="0.993" x="61.666" y="61.576"/><rect fill="#515151" height="1.962" id="XMLID_3183_" width="0.993" x="58.75" y="63.038"/><rect fill="#515151" height="1.962" id="XMLID_3182_" width="0.993" x="55.834" y="63.038"/><rect fill="#515151" height="1.962" id="XMLID_3181_" width="0.993" x="52.918" y="63.038"/><rect fill="#515151" height="3.424" id="XMLID_3180_" width="0.993" x="50.001" y="61.576"/><rect fill="#515151" height="1.962" id="XMLID_3179_" width="0.993" x="47.085" y="63.038"/><rect fill="#515151" height="1.962" id="XMLID_3178_" width="0.993" x="44.169" y="63.038"/><rect fill="#515151" height="1.962" id="XMLID_3177_" width="0.993" x="41.252" y="63.038"/><rect fill="#515151" height="3.424" id="XMLID_3176_" width="0.993" x="38.336" y="61.576"/><rect fill="#515151" height="1.962" id="XMLID_3175_" width="0.993" x="35.42" y="63.038"/><rect fill="#515151" height="1.962" id="XMLID_3174_" width="0.993" x="32.503" y="63.038"/><rect fill="#515151" height="1.962" id="XMLID_3173_" width="0.993" x="29.587" y="63.038"/><rect fill="#515151" height="3.424" id="XMLID_3172_" width="0.993" x="26.671" y="61.576"/><rect fill="#515151" height="1.962" id="XMLID_3171_" width="0.993" x="23.755" y="63.038"/><rect fill="#515151" height="1.962" id="XMLID_3170_" width="0.993" x="20.838" y="63.038"/><rect fill="#515151" height="1.962" id="XMLID_3169_" width="0.993" x="17.922" y="63.038"/><rect fill="#515151" height="3.424" id="XMLID_3168_" width="0.993" x="15.006" y="61.576"/><rect fill="#515151" height="1.962" id="XMLID_3167_" width="0.993" x="6.257" y="63.038"/><rect fill="#515151" height="3.424" id="XMLID_3166_" width="0.993" x="3.34" y="61.576"/><rect fill="#515151" height="1.962" id="XMLID_3165_" width="0.993" x="12.089" y="63.038"/><rect fill="#515151" height="1.962" id="XMLID_3164_" width="0.993" x="9.173" y="63.038"/></g></g><g id="XMLID_3115_"><rect fill="#666666" height="3.568" id="XMLID_3161_" width="2.082" x="31.476" y="7.373"/><path d="M34.05,1h-3.066c-0.468,0-0.848,0.379-0.848,0.848v5.094    c0,0.468,0.379,0.848,0.848,0.848h3.066c0.468,0,0.848-0.379,0.848-0.848V1.848C34.898,1.379,34.519,1,34.05,1z" fill="#515151" id="XMLID_3160_"/><g id="XMLID_3118_"><path d="M27.641,14.776c2.69-2.691,7.063-2.691,9.753,0c2.99,2.99,2.63,8.046-0.954,10.532     l1.595,1.595c4.482-3.417,4.78-9.862,0.937-13.705c-3.562-3.561-9.337-3.561-12.903,0.006     c-3.835,3.835-3.555,10.283,0.934,13.702l1.595-1.595C25.01,22.823,24.65,17.766,27.641,14.776z" fill="#515151" id="XMLID_3159_"/><g id="XMLID_3121_"><g id="XMLID_3129_"><g id="XMLID_3155_"><g id="XMLID_3156_"><path d="M18.409,49.443l-1.01,5.549c-0.043,0.236,0.276,0.354,0.396,0.145l2.819-4.885         L18.409,49.443z" fill="#515151" id="XMLID_3158_"/><path d="M31.999,19.406l-2.319-0.851c-0.41-0.15-0.864,0.06-1.015,0.47L17.809,48.604         c-0.151,0.41,0.06,0.864,0.47,1.015l2.319,0.851c0.41,0.15,0.864-0.06,1.015-0.47l10.856-29.579         C32.619,20.011,32.409,19.557,31.999,19.406z" fill="#FFCC66" id="XMLID_3157_"/></g></g><circle cx="21.358" cy="44.689" fill="#515151" id="XMLID_3131_" r="2.893"/><circle cx="21.358" cy="44.689" fill="#FFFFFF" id="XMLID_3130_" r="1.287"/></g><g id="XMLID_3122_"><g id="XMLID_3125_"><g id="XMLID_3126_"><path d="M46.626,49.443l1.01,5.549c0.043,0.236-0.276,0.354-0.396,0.145l-2.819-4.885         L46.626,49.443z" fill="#515151" id="XMLID_3128_"/><path d="M33.036,19.406l2.319-0.851c0.41-0.15,0.864,0.06,1.015,0.47l10.855,29.579         c0.151,0.41-0.06,0.864-0.47,1.015l-2.319,0.851c-0.41,0.15-0.864-0.06-1.015-0.47L32.566,20.421         C32.416,20.011,32.626,19.557,33.036,19.406z" fill="#FFCC66" id="XMLID_3127_"/></g></g><circle cx="43.677" cy="44.689" fill="#515151" id="XMLID_3124_" r="2.893"/><circle cx="43.677" cy="44.689" fill="#FFFFFF" id="XMLID_3123_" r="1.287"/></g></g><circle cx="32.519" cy="19.65" fill="#515151" id="XMLID_3120_" r="4.332"/><circle cx="32.519" cy="19.65" fill="#666666" id="XMLID_3119_" r="2.024"/></g><path d="M32.517,28.55c-1.118,0-2.024,0.906-2.024,2.024v4.625c0,1.118,0.906,2.024,2.024,2.024    c1.118,0,2.024-0.906,2.024-2.024v-4.625C34.542,29.456,33.635,28.55,32.517,28.55z" fill="#515151" id="XMLID_3117_"/><path d="M46.484,32.164H18.55c-0.399,0-0.722,0.323-0.722,0.722c0,0.399,0.324,0.723,0.722,0.723    h27.934c0.399,0,0.723-0.323,0.723-0.723C47.207,32.487,46.883,32.164,46.484,32.164z" fill="#515151" id="XMLID_3116_"/></g><circle cx="46.623" cy="32.887" fill="#515151" id="XMLID_3114_" r="2.126"/><path d="M18.412,35.013c-1.173,0-2.127-0.954-2.127-2.126c0-1.172,0.954-2.126,2.127-2.126   c1.172,0,2.126,0.954,2.126,2.126C20.538,34.059,19.584,35.013,18.412,35.013z" fill="#515151" id="XMLID_3111_"/></g></svg>